<svg width="59" height="59" viewBox="0 0 59 59" fill="none" xmlns="http://www.w3.org/2000/svg">
<path d="M30.1069 45.0738L29.8653 45.3155L29.5994 45.0738C18.1203 34.658 10.5319 27.7705 10.5319 20.7863C10.5319 15.953 14.1569 12.328 18.9903 12.328C22.7119 12.328 26.3369 14.7446 27.6178 18.0313H32.1128C33.3936 14.7446 37.0186 12.328 40.7403 12.328C45.5736 12.328 49.1986 15.953 49.1986 20.7863C49.1986 27.7705 41.6103 34.658 30.1069 45.0738ZM40.7403 7.49463C36.5353 7.49463 32.4994 9.45213 29.8653 12.5213C27.2311 9.45213 23.1953 7.49463 18.9903 7.49463C11.5469 7.49463 5.69861 13.3188 5.69861 20.7863C5.69861 29.8971 13.9153 37.3646 26.3611 48.6505L29.8653 51.8405L33.3694 48.6505C45.8153 37.3646 54.0319 29.8971 54.0319 20.7863C54.0319 13.3188 48.1836 7.49463 40.7403 7.49463Z" fill="#FFF8F8"/>
</svg>
