<svg width="64" height="64" viewBox="0 0 64 64" fill="none" xmlns="http://www.w3.org/2000/svg">
<path d="M49.4099 25.1189C51.1076 23.4958 52.8266 23.8766 53.3595 24.4341C53.8925 24.9916 54.1957 26.7259 52.4979 28.349C50.8002 29.9721 49.0812 29.5913 48.5483 29.0338C48.0153 28.4764 47.7121 26.742 49.4099 25.1189ZM57.2447 20.7198C54.0035 17.3295 48.7809 18.2841 45.6955 21.2338C42.6102 24.1835 41.4219 29.3579 44.6631 32.7482C47.9043 36.1384 53.1269 35.1839 56.2123 32.2342C59.2976 29.2845 60.4859 24.1101 57.2447 20.7198ZM18.8641 7.41327C20.5618 5.79017 22.2808 6.17098 22.8138 6.72846C23.3467 7.28594 23.6499 9.02027 21.9522 10.6434C20.2544 12.2665 18.5355 11.8857 18.0025 11.3282C17.4695 10.7707 17.1664 9.03637 18.8641 7.41327ZM26.6989 3.01413C23.4577 -0.376137 18.2351 0.578447 15.1498 3.52812C12.0645 6.47779 10.8762 11.6522 14.1174 15.0425C17.3586 18.4328 22.5812 17.4782 25.6665 14.5285C28.7518 11.5788 29.9401 6.4044 26.6989 3.01413ZM52.8761 42.9895C54.5739 41.3664 56.2928 41.7472 56.8258 42.3047C57.3588 42.8622 57.6619 44.5965 55.9642 46.2196C54.2665 47.8427 52.5475 47.4619 52.0145 46.9044C51.4816 46.3469 51.1784 44.6126 52.8761 42.9895ZM60.7109 38.5904C57.4697 35.2001 52.2471 36.1547 49.1618 39.1044C46.0765 42.054 44.8882 47.2285 48.1294 50.6187C51.3706 54.009 56.5932 53.0544 59.6785 50.1047C62.7639 47.1551 63.9521 41.9806 60.7109 38.5904ZM36.5609 11.679C38.2586 10.0559 39.9776 10.4367 40.5105 10.9942C41.0435 11.5517 41.3467 13.286 39.6489 14.9091C37.9512 16.5322 36.2322 16.1514 35.6993 15.5939C35.1663 15.0365 34.8631 13.3021 36.5609 11.679ZM44.3957 7.27989C41.1545 3.88962 35.9319 4.8442 32.8465 7.79388C29.7612 10.7436 28.5729 15.918 31.8141 19.3083C35.0553 22.6985 40.2779 21.7439 43.3633 18.7943C46.4486 15.8446 47.6369 10.6702 44.3957 7.27989ZM7.08781 32.2903C10.3468 29.1747 14.7099 27.4812 19.2175 27.5826C23.725 27.6839 28.0077 29.5717 31.1234 32.8306C34.239 36.0896 35.9325 40.4528 35.8312 44.9603C35.7298 49.4678 33.8421 53.7505 30.5831 56.8662C29.1615 58.2253 26.4212 58.1204 24.2428 55.8418L7.8263 38.6703C5.64782 36.3916 5.66617 33.6495 7.08781 32.2903ZM35.0085 29.1163C30.9078 24.8269 25.271 22.3423 19.3383 22.2089C13.4056 22.0756 7.66285 24.3044 3.37348 28.4052C1.1951 30.4878 0.490219 33.1175 0.757778 35.6544C1.02389 38.1777 2.24978 40.6155 3.94115 42.3846L20.3576 59.5561C22.049 61.3252 24.4292 62.6594 26.938 63.0387C29.4603 63.4199 32.119 62.8339 34.2974 60.7513C38.5868 56.6506 41.0714 51.0138 41.2048 45.0811C41.3382 39.1484 39.1093 33.4057 35.0085 29.1163Z" fill="#188F63" stroke="#188F63"/>
</svg>
