<svg width="53" height="59" viewBox="0 0 53 59" fill="none" xmlns="http://www.w3.org/2000/svg">
<path d="M52.7501 0.486328V58.8197H46.9168V38.403H35.2501V17.9863C35.2501 13.345 37.0939 8.89385 40.3758 5.61196C43.6576 2.33007 48.1088 0.486328 52.7501 0.486328ZM46.9168 7.8655C44.496 9.23633 41.0835 12.6488 41.0835 17.9863V32.5697H46.9168V7.8655ZM17.7501 35.1947V58.8197H11.9168V35.1947C8.62281 34.5223 5.6623 32.7325 3.53631 30.1281C1.41032 27.5238 0.249436 24.2649 0.250122 20.903V3.40299H6.08346V23.8197H11.9168V3.40299H17.7501V23.8197H23.5835V3.40299H29.4168V20.903C29.4175 24.2649 28.2566 27.5238 26.1306 30.1281C24.0046 32.7325 21.0441 34.5223 17.7501 35.1947Z" fill="#188F63"/>
</svg>
