<svg width="49" height="50" viewBox="0 0 49 50" fill="none" xmlns="http://www.w3.org/2000/svg">
<path fill-rule="evenodd" clip-rule="evenodd" d="M36.7315 12.5528L11.0228 21.8486L19.5876 26.8057L27.1397 19.2516C27.5228 18.8687 28.0423 18.6538 28.5839 18.654C29.1255 18.6541 29.6448 18.8695 30.0277 19.2526C30.4105 19.6357 30.6255 20.1552 30.6253 20.6968C30.6251 21.2383 30.4097 21.7577 30.0266 22.1405L22.4725 29.6947L27.4337 38.2574L36.7315 12.5528ZM37.3909 7.97135C39.8307 7.08731 42.195 9.45156 41.3109 11.8913L30.5269 41.7099C29.6408 44.1558 26.3006 44.4539 24.996 42.2019L18.4279 30.8543L7.08036 24.2863C4.8284 22.9817 5.12648 19.6415 7.5724 18.7554L37.3909 7.97135Z" fill="white"/>
</svg>
