<svg width="292" height="85" viewBox="0 0 292 85" fill="none" xmlns="http://www.w3.org/2000/svg">
<rect width="291" height="80" transform="translate(0.0664062 0.0567322)" fill="#188F63"/>
<path d="M57.8109 37.0414C59.5272 35.6945 61.2453 36.1046 61.8378 36.8595C62.4303 37.6145 62.4202 39.3808 60.7038 40.7278C58.9875 42.0748 57.2694 41.6647 56.6769 40.9097C56.0844 40.1547 56.0945 38.3884 57.8109 37.0414ZM64.7869 34.5452C62.5026 31.6344 58.2598 31.9237 55.4965 34.0923C52.7332 36.2609 51.4435 40.3133 53.7278 43.2241C56.0121 46.1348 60.2549 45.8455 63.0182 43.6769C65.7815 41.5083 67.0712 37.4559 64.7869 34.5452ZM37.2659 19.2113C36.6734 18.4564 34.9553 18.0463 33.2389 19.3932C31.5225 20.7402 31.5125 22.5065 32.1049 23.2615C32.6974 24.0165 34.4155 24.4266 36.1319 23.0796C37.8483 21.7326 37.8584 19.9663 37.2659 19.2113ZM30.9245 16.4441C33.6879 14.2756 37.9307 13.9862 40.215 16.897C42.4993 19.8077 41.2096 23.8601 38.4463 26.0287C35.683 28.1973 31.4401 28.4866 29.1558 25.5759C26.8716 22.6651 28.1612 18.6127 30.9245 16.4441ZM63.3027 52.3887C62.7102 51.6338 60.9921 51.2237 59.2757 52.5706C57.5593 53.9176 57.5492 55.6839 58.1417 56.4389C58.7342 57.1939 60.4523 57.604 62.1687 56.257C63.8851 54.9101 63.8951 53.1437 63.3027 52.3887ZM56.9613 49.6215C59.7246 47.453 63.9675 47.1636 66.2518 50.0744C68.5361 52.9851 67.2464 57.0376 64.4831 59.2061C61.7197 61.3747 57.4769 61.6641 55.1926 58.7533C52.9083 55.8425 54.198 51.7901 56.9613 49.6215ZM52.0017 24.3258C51.4092 23.5709 49.6911 23.1608 47.9747 24.5077C46.2584 25.8547 46.2483 27.621 46.8408 28.376C47.4332 29.131 49.1513 29.5411 50.8677 28.1941C52.5841 26.8471 52.5942 25.0808 52.0017 24.3258ZM45.6604 21.5586C48.4237 19.3901 52.6665 19.1007 54.9508 22.0115C57.2351 24.9222 55.9454 28.9746 53.1821 31.1432C50.4188 33.3118 46.176 33.6012 43.8917 30.6904C41.6074 27.7796 42.897 23.7272 45.6604 21.5586ZM21.1203 39.6257C24.2489 37.1704 28.2247 36.0586 32.1731 36.5347C36.1215 37.0109 39.719 39.036 42.1742 42.1646C44.6295 45.2932 45.7413 49.269 45.2652 53.2174C44.7891 57.1658 42.7639 60.7633 39.6353 63.2185C38.0605 64.4544 35.4712 63.9846 33.7123 61.7433L21.1452 45.7297C19.3862 43.4884 19.5455 40.8616 21.1203 39.6257ZM45.1233 39.8502C42.0543 35.9395 37.5574 33.4081 32.6219 32.8129C27.6864 32.2177 22.7167 33.6075 18.8059 36.6766C14.978 39.6807 15.7127 44.8797 18.1961 48.0441L30.7632 64.0577C33.2465 67.2221 38.1218 69.1717 41.9497 66.1676C45.8605 63.0986 48.3919 58.6017 48.987 53.6662C49.5822 48.7307 48.1924 43.761 45.1233 39.8502Z" fill="#FFF8F8"/>
<path d="M85.3971 47.8499H89.344L91.3282 50.4026L93.2802 52.6764L96.959 57.2882H92.6259L90.0948 54.1779L88.797 52.3331L85.3971 47.8499ZM97.2915 44.5036C97.2915 46.899 96.8374 48.9368 95.9293 50.6171C95.0284 52.2974 93.7986 53.5809 92.2398 54.4675C90.6882 55.347 88.9436 55.7867 87.0059 55.7867C85.0539 55.7867 83.302 55.3434 81.7504 54.4568C80.1988 53.5701 78.9726 52.2867 78.0717 50.6064C77.1707 48.9261 76.7203 46.8918 76.7203 44.5036C76.7203 42.1083 77.1707 40.0705 78.0717 38.3902C78.9726 36.7099 80.1988 35.43 81.7504 34.5505C83.302 33.6639 85.0539 33.2206 87.0059 33.2206C88.9436 33.2206 90.6882 33.6639 92.2398 34.5505C93.7986 35.43 95.0284 36.7099 95.9293 38.3902C96.8374 40.0705 97.2915 42.1083 97.2915 44.5036ZM92.583 44.5036C92.583 42.952 92.3507 41.6436 91.8859 40.5782C91.4283 39.5128 90.7812 38.7048 89.9446 38.1542C89.108 37.6037 88.1285 37.3284 87.0059 37.3284C85.8833 37.3284 84.9037 37.6037 84.0671 38.1542C83.2305 38.7048 82.5799 39.5128 82.1151 40.5782C81.6575 41.6436 81.4287 42.952 81.4287 44.5036C81.4287 46.0552 81.6575 47.3637 82.1151 48.4291C82.5799 49.4945 83.2305 50.3025 84.0671 50.853C84.9037 51.4036 85.8833 51.6789 87.0059 51.6789C88.1285 51.6789 89.108 51.4036 89.9446 50.853C90.7812 50.3025 91.4283 49.4945 91.8859 48.4291C92.3507 47.3637 92.583 46.0552 92.583 44.5036ZM111.21 48.472V39.0123H115.779V55.4864H111.393V52.494H111.221C110.849 53.4593 110.231 54.2351 109.366 54.8214C108.507 55.4077 107.46 55.7009 106.223 55.7009C105.122 55.7009 104.153 55.4506 103.316 54.9501C102.48 54.4496 101.826 53.7382 101.354 52.8158C100.889 51.8934 100.653 50.7887 100.646 49.5016V39.0123H105.215V48.6865C105.222 49.659 105.483 50.4276 105.998 50.9925C106.513 51.5573 107.203 51.8398 108.068 51.8398C108.618 51.8398 109.133 51.7146 109.612 51.4644C110.091 51.207 110.477 50.828 110.771 50.3275C111.071 49.827 111.217 49.2085 111.21 48.472ZM124.132 55.7974C123.081 55.7974 122.144 55.6151 121.322 55.2504C120.499 54.8786 119.849 54.3316 119.37 53.6095C118.898 52.8801 118.662 51.9721 118.662 50.8852C118.662 49.97 118.83 49.2013 119.166 48.5793C119.502 47.9572 119.959 47.4567 120.539 47.0777C121.118 46.6988 121.776 46.4128 122.512 46.2197C123.256 46.0266 124.035 45.8908 124.85 45.8121C125.808 45.712 126.581 45.6191 127.167 45.5333C127.753 45.4403 128.179 45.3045 128.443 45.1257C128.708 44.947 128.84 44.6824 128.84 44.332V44.2677C128.84 43.5884 128.626 43.0629 128.197 42.6911C127.775 42.3192 127.174 42.1333 126.395 42.1333C125.572 42.1333 124.918 42.3157 124.432 42.6803C123.946 43.0378 123.624 43.4883 123.467 44.0317L119.241 43.6885C119.455 42.6875 119.877 41.8223 120.506 41.093C121.136 40.3565 121.947 39.7916 122.941 39.3984C123.942 38.998 125.1 38.7978 126.416 38.7978C127.331 38.7978 128.207 38.905 129.044 39.1195C129.888 39.334 130.635 39.6665 131.285 40.117C131.943 40.5674 132.462 41.1466 132.841 41.8545C133.22 42.5552 133.409 43.3954 133.409 44.3749V55.4864H129.076V53.2019H128.947C128.683 53.7167 128.329 54.1707 127.885 54.564C127.442 54.9501 126.909 55.254 126.287 55.4757C125.665 55.6902 124.947 55.7974 124.132 55.7974ZM125.44 52.6442C126.112 52.6442 126.706 52.5119 127.221 52.2473C127.735 51.9756 128.139 51.611 128.432 51.1534C128.726 50.6957 128.872 50.1773 128.872 49.5982V47.8499C128.729 47.9429 128.533 48.0287 128.282 48.1074C128.039 48.1789 127.764 48.2468 127.456 48.3111C127.149 48.3683 126.842 48.422 126.534 48.472C126.227 48.5149 125.948 48.5542 125.698 48.59C125.161 48.6686 124.693 48.7938 124.293 48.9654C123.892 49.137 123.581 49.3694 123.359 49.6625C123.138 49.9485 123.027 50.306 123.027 50.7351C123.027 51.3571 123.252 51.8326 123.703 52.1615C124.16 52.4833 124.739 52.6442 125.44 52.6442ZM145.716 39.0123V42.4444H135.795V39.0123H145.716ZM138.048 35.0653H142.617V50.424C142.617 50.8459 142.681 51.1748 142.81 51.4108C142.939 51.6396 143.117 51.8004 143.346 51.8934C143.582 51.9864 143.854 52.0328 144.161 52.0328C144.376 52.0328 144.59 52.015 144.805 51.9792C145.019 51.9363 145.184 51.9041 145.298 51.8827L146.017 55.2826C145.788 55.3541 145.466 55.4363 145.051 55.5293C144.637 55.6294 144.133 55.6902 143.539 55.7116C142.438 55.7545 141.473 55.6079 140.643 55.2719C139.821 54.9358 139.181 54.4139 138.723 53.706C138.266 52.9981 138.041 52.1043 138.048 51.0246V35.0653ZM148.693 55.4864V39.0123H153.122V41.8867H153.294C153.594 40.8642 154.098 40.092 154.806 39.57C155.514 39.0409 156.329 38.7763 157.251 38.7763C157.48 38.7763 157.727 38.7906 157.992 38.8192C158.256 38.8478 158.488 38.8871 158.689 38.9372V42.9914C158.474 42.927 158.177 42.8698 157.798 42.8198C157.42 42.7697 157.073 42.7447 156.758 42.7447C156.086 42.7447 155.485 42.8913 154.956 43.1844C154.434 43.4704 154.02 43.8708 153.712 44.3857C153.412 44.9005 153.262 45.4939 153.262 46.1661V55.4864H148.693ZM167.792 55.8081C166.097 55.8081 164.639 55.4649 163.416 54.7785C162.2 54.0849 161.264 53.1054 160.606 51.8398C159.948 50.567 159.619 49.0619 159.619 47.3244C159.619 45.6298 159.948 44.1426 160.606 42.8627C161.264 41.5828 162.19 40.5853 163.384 39.8703C164.585 39.1553 165.994 38.7978 167.609 38.7978C168.696 38.7978 169.708 38.9729 170.645 39.3233C171.589 39.6665 172.411 40.1849 173.112 40.8785C173.819 41.572 174.37 42.4444 174.763 43.4955C175.157 44.5394 175.353 45.7621 175.353 47.1635V48.4184H161.442V45.5869H171.052C171.052 44.9291 170.909 44.3463 170.623 43.8387C170.337 43.331 169.94 42.9342 169.433 42.6482C168.932 42.355 168.35 42.2084 167.685 42.2084C166.991 42.2084 166.376 42.3693 165.84 42.6911C165.311 43.0057 164.896 43.4311 164.596 43.9674C164.295 44.4965 164.142 45.0864 164.134 45.7371V48.4291C164.134 49.2442 164.285 49.9485 164.585 50.542C164.892 51.1355 165.325 51.5931 165.883 51.9149C166.44 52.2366 167.102 52.3975 167.867 52.3975C168.375 52.3975 168.839 52.326 169.261 52.183C169.683 52.04 170.044 51.8255 170.344 51.5395C170.645 51.2535 170.874 50.9031 171.031 50.4884L175.257 50.7672C175.042 51.7826 174.602 52.6692 173.937 53.4271C173.28 54.1779 172.429 54.7642 171.385 55.1861C170.348 55.6008 169.15 55.8081 167.792 55.8081ZM185.325 61.6642V39.0123H189.83V41.7794H190.033C190.234 41.3361 190.523 40.8856 190.902 40.428C191.288 39.9632 191.789 39.5771 192.404 39.2697C193.026 38.9551 193.798 38.7978 194.72 38.7978C195.922 38.7978 197.03 39.1124 198.045 39.7416C199.061 40.3637 199.872 41.3039 200.48 42.5624C201.088 43.8136 201.392 45.3831 201.392 47.2708C201.392 49.1084 201.095 50.66 200.501 51.9256C199.915 53.184 199.114 54.1386 198.099 54.7892C197.091 55.4328 195.961 55.7545 194.71 55.7545C193.823 55.7545 193.069 55.6079 192.447 55.3148C191.832 55.0216 191.328 54.6534 190.934 54.2101C190.541 53.7596 190.241 53.3056 190.033 52.848H189.894V61.6642H185.325ZM189.798 47.2493C189.798 48.2289 189.933 49.0834 190.205 49.8127C190.477 50.542 190.87 51.1105 191.385 51.518C191.9 51.9184 192.525 52.1186 193.262 52.1186C194.005 52.1186 194.635 51.9149 195.149 51.5073C195.664 51.0926 196.054 50.5206 196.319 49.7912C196.59 49.0548 196.726 48.2075 196.726 47.2493C196.726 46.2983 196.594 45.4618 196.329 44.7396C196.065 44.0174 195.675 43.4526 195.16 43.045C194.645 42.6374 194.013 42.4337 193.262 42.4337C192.518 42.4337 191.889 42.6303 191.374 43.0235C190.866 43.4168 190.477 43.9745 190.205 44.6967C189.933 45.4189 189.798 46.2697 189.798 47.2493ZM209.135 55.7974C208.084 55.7974 207.148 55.6151 206.325 55.2504C205.503 54.8786 204.852 54.3316 204.373 53.6095C203.901 52.8801 203.665 51.9721 203.665 50.8852C203.665 49.97 203.833 49.2013 204.169 48.5793C204.506 47.9572 204.963 47.4567 205.542 47.0777C206.121 46.6988 206.779 46.4128 207.516 46.2197C208.259 46.0266 209.039 45.8908 209.854 45.8121C210.812 45.712 211.584 45.6191 212.171 45.5333C212.757 45.4403 213.182 45.3045 213.447 45.1257C213.711 44.947 213.844 44.6824 213.844 44.332V44.2677C213.844 43.5884 213.629 43.0629 213.2 42.6911C212.778 42.3192 212.178 42.1333 211.398 42.1333C210.576 42.1333 209.922 42.3157 209.436 42.6803C208.949 43.0378 208.628 43.4883 208.47 44.0317L204.245 43.6885C204.459 42.6875 204.881 41.8223 205.51 41.093C206.139 40.3565 206.951 39.7916 207.945 39.3984C208.946 38.998 210.104 38.7978 211.42 38.7978C212.335 38.7978 213.211 38.905 214.048 39.1195C214.891 39.334 215.638 39.6665 216.289 40.117C216.947 40.5674 217.465 41.1466 217.844 41.8545C218.223 42.5552 218.413 43.3954 218.413 44.3749V55.4864H214.08V53.2019H213.951C213.686 53.7167 213.332 54.1707 212.889 54.564C212.446 54.9501 211.913 55.254 211.291 55.4757C210.669 55.6902 209.95 55.7974 209.135 55.7974ZM210.444 52.6442C211.116 52.6442 211.709 52.5119 212.224 52.2473C212.739 51.9756 213.143 51.611 213.436 51.1534C213.729 50.6957 213.876 50.1773 213.876 49.5982V47.8499C213.733 47.9429 213.536 48.0287 213.286 48.1074C213.043 48.1789 212.768 48.2468 212.46 48.3111C212.153 48.3683 211.845 48.422 211.538 48.472C211.23 48.5149 210.951 48.5542 210.701 48.59C210.165 48.6686 209.697 48.7938 209.296 48.9654C208.896 49.137 208.585 49.3694 208.363 49.6625C208.141 49.9485 208.031 50.306 208.031 50.7351C208.031 51.3571 208.256 51.8326 208.706 52.1615C209.164 52.4833 209.743 52.6442 210.444 52.6442ZM230.72 39.0123V42.4444H220.799V39.0123H230.72ZM223.051 35.0653H227.62V50.424C227.62 50.8459 227.685 51.1748 227.813 51.4108C227.942 51.6396 228.121 51.8004 228.35 51.8934C228.586 51.9864 228.857 52.0328 229.165 52.0328C229.379 52.0328 229.594 52.015 229.808 51.9792C230.023 51.9363 230.187 51.9041 230.302 51.8827L231.02 55.2826C230.792 55.3541 230.47 55.4363 230.055 55.5293C229.64 55.6294 229.136 55.6902 228.543 55.7116C227.442 55.7545 226.476 55.6079 225.647 55.2719C224.825 54.9358 224.185 54.4139 223.727 53.706C223.27 52.9981 223.044 52.1043 223.051 51.0246V35.0653ZM242.459 39.0123V42.4444H232.538V39.0123H242.459ZM234.79 35.0653H239.359V50.424C239.359 50.8459 239.424 51.1748 239.552 51.4108C239.681 51.6396 239.86 51.8004 240.089 51.8934C240.325 51.9864 240.596 52.0328 240.904 52.0328C241.118 52.0328 241.333 52.015 241.547 51.9792C241.762 51.9363 241.926 51.9041 242.041 51.8827L242.759 55.2826C242.53 55.3541 242.209 55.4363 241.794 55.5293C241.379 55.6294 240.875 55.6902 240.282 55.7116C239.181 55.7545 238.215 55.6079 237.386 55.2719C236.564 54.9358 235.924 54.4139 235.466 53.706C235.008 52.9981 234.783 52.1043 234.79 51.0246V35.0653ZM252.766 55.8081C251.071 55.8081 249.613 55.4649 248.39 54.7785C247.175 54.0849 246.238 53.1054 245.58 51.8398C244.922 50.567 244.593 49.0619 244.593 47.3244C244.593 45.6298 244.922 44.1426 245.58 42.8627C246.238 41.5828 247.164 40.5853 248.358 39.8703C249.559 39.1553 250.968 38.7978 252.584 38.7978C253.67 38.7978 254.682 38.9729 255.619 39.3233C256.563 39.6665 257.385 40.1849 258.086 40.8785C258.794 41.572 259.344 42.4444 259.737 43.4955C260.131 44.5394 260.327 45.7621 260.327 47.1635V48.4184H246.417V45.5869H256.026C256.026 44.9291 255.883 44.3463 255.597 43.8387C255.311 43.331 254.915 42.9342 254.407 42.6482C253.906 42.355 253.324 42.2084 252.659 42.2084C251.965 42.2084 251.35 42.3693 250.814 42.6911C250.285 43.0057 249.87 43.4311 249.57 43.9674C249.27 44.4965 249.116 45.0864 249.109 45.7371V48.4291C249.109 49.2442 249.259 49.9485 249.559 50.542C249.867 51.1355 250.299 51.5931 250.857 51.9149C251.415 52.2366 252.076 52.3975 252.841 52.3975C253.349 52.3975 253.813 52.326 254.235 52.183C254.657 52.04 255.018 51.8255 255.319 51.5395C255.619 51.2535 255.848 50.9031 256.005 50.4884L260.231 50.7672C260.016 51.7826 259.577 52.6692 258.912 53.4271C258.254 54.1779 257.403 54.7642 256.359 55.1861C255.322 55.6008 254.125 55.8081 252.766 55.8081ZM277.016 43.71L272.833 43.9674C272.762 43.6099 272.608 43.2881 272.372 43.0021C272.136 42.7089 271.825 42.4766 271.439 42.3049C271.06 42.1262 270.606 42.0368 270.077 42.0368C269.369 42.0368 268.772 42.187 268.286 42.4873C267.799 42.7804 267.556 43.1737 267.556 43.6671C267.556 44.0603 267.714 44.3928 268.028 44.6645C268.343 44.9362 268.883 45.1543 269.648 45.3188L272.629 45.9194C274.231 46.2483 275.425 46.7774 276.212 47.5067C276.998 48.2361 277.391 49.1942 277.391 50.3811C277.391 51.4608 277.073 52.4082 276.437 53.2233C275.808 54.0385 274.942 54.6748 273.841 55.1325C272.747 55.5829 271.485 55.8081 270.055 55.8081C267.874 55.8081 266.137 55.3541 264.843 54.446C263.556 53.5308 262.801 52.2867 262.58 50.7136L267.074 50.4777C267.209 51.1426 267.538 51.6503 268.06 52.0007C268.582 52.3439 269.251 52.5155 270.066 52.5155C270.867 52.5155 271.51 52.3617 271.997 52.0543C272.49 51.7397 272.74 51.3357 272.747 50.8423C272.74 50.4276 272.565 50.088 272.222 49.8234C271.879 49.5517 271.349 49.3443 270.634 49.2013L267.781 48.6329C266.173 48.3111 264.975 47.7534 264.188 46.9597C263.409 46.1661 263.019 45.1543 263.019 43.9245C263.019 42.8662 263.305 41.9546 263.877 41.1895C264.457 40.4244 265.268 39.8345 266.312 39.4198C267.363 39.0051 268.593 38.7978 270.002 38.7978C272.082 38.7978 273.72 39.2375 274.914 40.117C276.115 40.9965 276.816 42.1941 277.016 43.71Z" fill="#FFFEFE"/>
</svg>
